<svg width="22" height="21" viewBox="0 0 22 21" fill="none" xmlns="http://www.w3.org/2000/svg">
<path d="M21.5 1.54412V19.4559C21.5 19.8654 21.3373 20.2582 21.0477 20.5477C20.7582 20.8373 20.3654 21 19.9559 21H2.04412C1.63459 21 1.24184 20.8373 0.952262 20.5477C0.662683 20.2582 0.5 19.8654 0.5 19.4559L0.5 1.54412C0.5 1.13459 0.662683 0.74184 0.952262 0.452262C1.24184 0.162683 1.63459 0 2.04412 0L19.9559 0C20.3654 0 20.7582 0.162683 21.0477 0.452262C21.3373 0.74184 21.5 1.13459 21.5 1.54412ZM6.67647 8.02941H3.58824V17.9118H6.67647V8.02941ZM6.95441 4.63235C6.95604 4.39875 6.91164 4.16712 6.82375 3.95068C6.73585 3.73424 6.60619 3.53723 6.44215 3.3709C6.27812 3.20458 6.08293 3.07219 5.86773 2.9813C5.65253 2.89041 5.42154 2.84279 5.18794 2.84118H5.13235C4.6573 2.84118 4.20171 3.02989 3.8658 3.3658C3.52989 3.70171 3.34118 4.1573 3.34118 4.63235C3.34118 5.1074 3.52989 5.56299 3.8658 5.89891C4.20171 6.23482 4.6573 6.42353 5.13235 6.42353C5.36597 6.42928 5.59843 6.38894 5.81645 6.30481C6.03447 6.22069 6.23378 6.09443 6.40298 5.93325C6.57219 5.77208 6.70798 5.57914 6.8026 5.36546C6.89722 5.15179 6.9488 4.92156 6.95441 4.68794V4.63235ZM18.4118 11.9082C18.4118 8.93735 16.5218 7.78235 14.6441 7.78235C14.0293 7.75157 13.4172 7.88251 12.8689 8.16212C12.3205 8.44173 11.855 8.86023 11.5188 9.37588H11.4324V8.02941H8.52941V17.9118H11.6176V12.6556C11.573 12.1173 11.7426 11.5831 12.0895 11.1691C12.4365 10.755 12.9328 10.4946 13.4706 10.4444H13.5879C14.57 10.4444 15.2988 11.0621 15.2988 12.6185V17.9118H18.3871L18.4118 11.9082Z" fill="#5700FF"/>
</svg>
