<svg width="24" height="19" viewBox="0 0 24 19" fill="none" xmlns="http://www.w3.org/2000/svg">
<path d="M21.278 4.73953C21.2923 4.94523 21.2923 5.15093 21.2923 5.35853C21.2923 11.6841 16.4768 18.9794 7.67143 18.9794V18.9756C5.07031 18.9794 2.52322 18.2343 0.333496 16.8294C0.711721 16.875 1.09184 16.8977 1.47291 16.8986C3.62851 16.9005 5.72249 16.1773 7.41834 14.8454C5.36986 14.8066 3.57353 13.4709 2.946 11.521C3.66358 11.6594 4.40297 11.631 5.10728 11.4386C2.87395 10.9873 1.26721 9.02513 1.26721 6.7463C1.26721 6.72545 1.26721 6.70554 1.26721 6.68563C1.93266 7.05628 2.67773 7.26198 3.43987 7.28473C1.33641 5.87894 0.688022 3.08065 1.95825 0.892825C4.38875 3.88355 7.97477 5.70168 11.8243 5.89411C11.4385 4.23144 11.9656 2.48914 13.2093 1.32034C15.1373 -0.492103 18.1698 -0.399206 19.9822 1.52794C21.0543 1.31655 22.0819 0.923159 23.0222 0.365775C22.6649 1.47391 21.9169 2.4152 20.9178 3.01335C21.8667 2.90149 22.7938 2.64745 23.6668 2.25974C23.0241 3.22284 22.2146 4.06176 21.278 4.73953Z" fill="#5700FF"/>
</svg>
